# Blender v2.71 (sub 0) OBJ File: 'particlethrower.blend'
# www.blender.org
v 0.000000 0.426928 0.045301
v 0.000000 0.426928 0.199301
v 0.005253 0.426411 0.045301
v 0.005253 0.426411 0.199301
v 0.010305 0.424878 0.045301
v 0.010305 0.424878 0.199301
v 0.014960 0.422390 0.045301
v 0.014960 0.422390 0.199301
v 0.019041 0.419041 0.045301
v 0.019041 0.419041 0.199301
v 0.022390 0.414961 0.045301
v 0.022390 0.414960 0.199301
v 0.024878 0.410305 0.045301
v 0.024878 0.410305 0.199301
v 0.026411 0.405253 0.045301
v 0.026411 0.405253 0.199301
v 0.026928 0.400000 0.045301
v 0.026928 0.400000 0.199301
v 0.026411 0.394747 0.045301
v 0.026411 0.394747 0.199301
v 0.024878 0.389695 0.045301
v 0.024878 0.389695 0.199301
v 0.022390 0.385040 0.045301
v 0.022390 0.385040 0.199301
v 0.019041 0.380959 0.045301
v 0.019041 0.380959 0.199301
v 0.014960 0.377610 0.045301
v 0.014960 0.377610 0.199301
v 0.010305 0.375122 0.045301
v 0.010305 0.375122 0.199301
v 0.005253 0.373589 0.045301
v 0.005253 0.373589 0.199301
v -0.000000 0.373072 0.045301
v -0.000000 0.373072 0.199301
v -0.005253 0.373589 0.045301
v -0.005253 0.373589 0.199301
v -0.010305 0.375122 0.045301
v -0.010305 0.375122 0.199301
v -0.014960 0.377610 0.045301
v -0.014960 0.377610 0.199301
v -0.019041 0.380959 0.045301
v -0.019041 0.380959 0.199301
v -0.022390 0.385040 0.045301
v -0.022390 0.385040 0.199301
v -0.024878 0.389695 0.045301
v -0.024878 0.389695 0.199301
v -0.026411 0.394747 0.045301
v -0.026411 0.394747 0.199301
v -0.026928 0.400000 0.045301
v -0.026928 0.400000 0.199301
v -0.026411 0.405253 0.045301
v -0.026411 0.405253 0.199301
v -0.024878 0.410305 0.045301
v -0.024878 0.410305 0.199301
v -0.022390 0.414961 0.045301
v -0.022390 0.414960 0.199301
v -0.019041 0.419041 0.045301
v -0.019041 0.419041 0.199301
v -0.014960 0.422390 0.045301
v -0.014960 0.422390 0.199301
v -0.010305 0.424878 0.045301
v -0.010305 0.424878 0.199301
v -0.005253 0.426411 0.045301
v -0.005253 0.426411 0.199301
v -0.067562 0.030946 -0.182415
v -0.067562 0.030946 -0.217585
v 0.067562 0.030946 -0.217585
v 0.067562 0.030946 -0.182415
v -0.067562 0.469054 -0.182415
v -0.067562 0.469054 -0.217585
v 0.067562 0.469054 -0.217585
v 0.067562 0.469054 -0.182415
v 0.301647 -0.033682 -0.301647
v 0.301647 -0.033682 0.301647
v -0.301647 -0.033682 0.301647
v -0.301647 -0.033682 -0.301647
v 0.301647 0.033682 -0.301647
v 0.301647 0.033682 0.301647
v -0.301647 0.033682 0.301647
v -0.301647 0.033682 -0.301647
v -0.067562 0.030946 0.217585
v -0.067562 0.030946 0.182415
v 0.067562 0.030946 0.182415
v 0.067562 0.030946 0.217585
v -0.067562 0.469054 0.217585
v -0.067562 0.469054 0.182415
v 0.067562 0.469054 0.182415
v 0.067562 0.469054 0.217585
v 0.000000 0.426928 -0.200530
v 0.000000 0.426928 0.002224
v 0.005253 0.426411 -0.200530
v 0.005253 0.426411 0.002224
v 0.010305 0.424878 -0.200530
v 0.010305 0.424878 0.002224
v 0.014960 0.422390 -0.200530
v 0.014960 0.422390 0.002224
v 0.019041 0.419041 -0.200530
v 0.019041 0.419041 0.002224
v 0.022390 0.414961 -0.200530
v 0.022390 0.414960 0.002224
v 0.024878 0.410305 -0.200530
v 0.024878 0.410305 0.002224
v 0.026411 0.405253 -0.200530
v 0.026411 0.405253 0.002224
v 0.026928 0.400000 -0.200530
v 0.026928 0.400000 0.002224
v 0.026411 0.394747 -0.200530
v 0.026411 0.394747 0.002224
v 0.024878 0.389695 -0.200530
v 0.024878 0.389695 0.002224
v 0.022390 0.385040 -0.200530
v 0.022390 0.385040 0.002224
v 0.019041 0.380959 -0.200530
v 0.019041 0.380959 0.002224
v 0.014960 0.377610 -0.200530
v 0.014960 0.377610 0.002224
v 0.010305 0.375122 -0.200530
v 0.010305 0.375122 0.002224
v 0.005253 0.373589 -0.200530
v 0.005253 0.373589 0.002224
v -0.000000 0.373072 -0.200530
v -0.000000 0.373072 0.002224
v -0.005253 0.373589 -0.200530
v -0.005253 0.373589 0.002224
v -0.010305 0.375122 -0.200530
v -0.010305 0.375122 0.002224
v -0.014960 0.377610 -0.200530
v -0.014960 0.377610 0.002224
v -0.019041 0.380959 -0.200530
v -0.019041 0.380959 0.002224
v -0.022390 0.385040 -0.200530
v -0.022390 0.385040 0.002224
v -0.024878 0.389695 -0.200530
v -0.024878 0.389695 0.002224
v -0.026411 0.394747 -0.200530
v -0.026411 0.394747 0.002224
v -0.026928 0.400000 -0.200530
v -0.026928 0.400000 0.002224
v -0.026411 0.405253 -0.200530
v -0.026411 0.405253 0.002224
v -0.024878 0.410305 -0.200530
v -0.024878 0.410305 0.002224
v -0.022390 0.414961 -0.200530
v -0.022390 0.414960 0.002224
v -0.019041 0.419041 -0.200530
v -0.019041 0.419041 0.002224
v -0.014960 0.422390 -0.200530
v -0.014960 0.422390 0.002224
v -0.010305 0.424878 -0.200530
v -0.010305 0.424878 0.002224
v -0.005253 0.426411 -0.200530
v -0.005253 0.426411 0.002224
vn 0.098000 0.995200 0.000000
vn 0.290300 0.956900 0.000000
vn 0.471400 0.881900 0.000000
vn 0.634400 0.773000 0.000000
vn 0.773000 0.634400 0.000000
vn 0.881900 0.471400 0.000000
vn 0.956900 0.290300 0.000000
vn 0.995200 0.098000 0.000000
vn 0.995200 -0.098000 -0.000000
vn 0.956900 -0.290300 -0.000000
vn 0.881900 -0.471400 -0.000000
vn 0.773000 -0.634400 -0.000000
vn 0.634400 -0.773000 -0.000000
vn 0.471400 -0.881900 -0.000000
vn 0.290300 -0.956900 -0.000000
vn 0.098000 -0.995200 -0.000000
vn -0.098000 -0.995200 -0.000000
vn -0.290300 -0.956900 -0.000000
vn -0.471400 -0.881900 -0.000000
vn -0.634400 -0.773000 -0.000000
vn -0.773000 -0.634400 -0.000000
vn -0.881900 -0.471400 -0.000000
vn -0.956900 -0.290300 -0.000000
vn -0.995200 -0.098000 -0.000000
vn -0.995200 0.098000 0.000000
vn -0.956900 0.290300 0.000000
vn -0.881900 0.471400 0.000000
vn -0.773000 0.634400 0.000000
vn -0.634400 0.773000 0.000000
vn -0.471400 0.881900 0.000000
vn 0.000000 0.000000 1.000000
vn -0.098000 0.995200 0.000000
vn -0.290300 0.956900 0.000000
vn -0.000000 0.000000 -1.000000
vn -1.000000 0.000000 0.000000
vn 1.000000 0.000000 0.000000
vn 0.000000 -1.000000 0.000000
vn 0.000000 1.000000 0.000000
s off
f 1//1 2//1 4//1
f 4//2 6//2 5//2
f 6//3 8//3 7//3
f 8//4 10//4 9//4
f 10//5 12//5 11//5
f 12//6 14//6 13//6
f 14//7 16//7 15//7
f 16//8 18//8 17//8
f 17//9 18//9 20//9
f 20//10 22//10 21//10
f 21//11 22//11 24//11
f 24//12 26//12 25//12
f 26//13 28//13 27//13
f 28//14 30//14 29//14
f 30//15 32//15 31//15
f 32//16 34//16 33//16
f 34//17 36//17 35//17
f 36//18 38//18 37//18
f 38//19 40//19 39//19
f 39//20 40//20 42//20
f 42//21 44//21 43//21
f 44//22 46//22 45//22
f 46//23 48//23 47//23
f 48//24 50//24 49//24
f 50//25 52//25 51//25
f 52//26 54//26 53//26
f 54//27 56//27 55//27
f 56//28 58//28 57//28
f 58//29 60//29 59//29
f 60//30 62//30 61//30
f 2//31 22//31 14//31
f 64//32 2//32 1//32
f 62//33 64//33 63//33
f 31//34 55//34 11//34
f 70//35 66//35 65//35
f 71//34 67//34 66//34
f 72//36 68//36 67//36
f 69//31 65//31 68//31
f 66//37 67//37 68//37
f 71//38 70//38 69//38
f 74//37 75//37 76//37
f 80//38 79//38 78//38
f 73//36 77//36 78//36
f 74//31 78//31 79//31
f 79//35 80//35 76//35
f 77//34 73//34 76//34
f 86//35 82//35 81//35
f 87//34 83//34 82//34
f 88//36 84//36 83//36
f 85//31 81//31 84//31
f 82//37 83//37 84//37
f 87//38 86//38 85//38
f 90//1 92//1 91//1
f 92//2 94//2 93//2
f 94//3 96//3 95//3
f 96//4 98//4 97//4
f 97//5 98//5 100//5
f 100//6 102//6 101//6
f 102//7 104//7 103//7
f 104//8 106//8 105//8
f 106//9 108//9 107//9
f 108//10 110//10 109//10
f 110//11 112//11 111//11
f 112//12 114//12 113//12
f 114//13 116//13 115//13
f 116//14 118//14 117//14
f 118//15 120//15 119//15
f 120//16 122//16 121//16
f 122//17 124//17 123//17
f 124//18 126//18 125//18
f 126//19 128//19 127//19
f 128//20 130//20 129//20
f 130//21 132//21 131//21
f 132//22 134//22 133//22
f 134//23 136//23 135//23
f 136//24 138//24 137//24
f 138//25 140//25 139//25
f 140//26 142//26 141//26
f 142//27 144//27 143//27
f 144//28 146//28 145//28
f 146//29 148//29 147//29
f 148//30 150//30 149//30
f 96//31 90//31 126//31
f 151//32 152//32 90//32
f 150//33 152//33 151//33
f 151//34 115//34 127//34
f 3//1 1//1 4//1
f 3//2 4//2 5//2
f 5//3 6//3 7//3
f 7//4 8//4 9//4
f 9//5 10//5 11//5
f 11//6 12//6 13//6
f 13//7 14//7 15//7
f 15//8 16//8 17//8
f 19//9 17//9 20//9
f 19//10 20//10 21//10
f 23//11 21//11 24//11
f 23//12 24//12 25//12
f 25//13 26//13 27//13
f 27//14 28//14 29//14
f 29//15 30//15 31//15
f 31//16 32//16 33//16
f 33//17 34//17 35//17
f 35//18 36//18 37//18
f 37//19 38//19 39//19
f 41//20 39//20 42//20
f 41//21 42//21 43//21
f 43//22 44//22 45//22
f 45//23 46//23 47//23
f 47//24 48//24 49//24
f 49//25 50//25 51//25
f 51//26 52//26 53//26
f 53//27 54//27 55//27
f 55//28 56//28 57//28
f 57//29 58//29 59//29
f 59//30 60//30 61//30
f 2//31 8//31 4//31
f 62//31 60//31 64//31
f 8//31 6//31 4//31
f 54//31 60//31 56//31
f 54//31 52//31 50//31
f 12//31 8//31 2//31
f 42//31 48//31 44//31
f 42//31 40//31 38//31
f 60//31 50//31 48//31
f 30//31 36//31 32//31
f 30//31 28//31 26//31
f 61//33 62//33 63//33
f 22//31 20//31 18//31
f 18//31 16//31 14//31
f 10//31 8//31 12//31
f 36//31 2//31 60//31
f 36//31 30//31 24//31
f 60//31 54//31 50//31
f 48//31 46//31 44//31
f 38//31 36//31 42//31
f 36//31 48//31 42//31
f 24//31 22//31 2//31
f 22//31 18//31 14//31
f 63//32 64//32 1//32
f 36//31 24//31 2//31
f 60//31 58//31 56//31
f 36//31 34//31 32//31
f 60//31 2//31 64//31
f 30//31 26//31 24//31
f 14//31 12//31 2//31
f 60//31 48//31 36//31
f 63//34 1//34 3//34
f 41//34 35//34 37//34
f 11//34 5//34 9//34
f 11//34 13//34 15//34
f 61//34 55//34 57//34
f 47//34 51//34 53//34
f 27//34 29//34 25//34
f 31//34 23//34 29//34
f 31//34 33//34 35//34
f 39//34 41//34 37//34
f 43//34 35//34 41//34
f 43//34 45//34 47//34
f 47//34 49//34 51//34
f 55//34 47//34 53//34
f 59//34 61//34 57//34
f 63//34 55//34 61//34
f 55//34 63//34 5//34
f 17//34 21//34 15//34
f 17//34 19//34 21//34
f 29//34 23//34 25//34
f 11//34 15//34 31//34
f 47//34 35//34 43//34
f 70//34 71//34 66//34
f 21//34 23//34 15//34
f 63//34 3//34 5//34
f 15//34 23//34 31//34
f 11//34 55//34 5//34
f 55//34 31//34 35//34
f 69//35 70//35 65//35
f 5//34 7//34 9//34
f 47//34 55//34 35//34
f 71//36 72//36 67//36
f 72//31 69//31 68//31
f 65//37 66//37 68//37
f 72//38 71//38 69//38
f 73//37 74//37 76//37
f 77//38 80//38 78//38
f 74//36 73//36 78//36
f 75//31 74//31 79//31
f 75//35 79//35 76//35
f 80//34 77//34 76//34
f 85//35 86//35 81//35
f 86//34 87//34 82//34
f 87//36 88//36 83//36
f 88//31 85//31 84//31
f 81//37 82//37 84//37
f 88//38 87//38 85//38
f 89//1 90//1 91//1
f 91//2 92//2 93//2
f 93//3 94//3 95//3
f 95//4 96//4 97//4
f 99//5 97//5 100//5
f 99//6 100//6 101//6
f 101//7 102//7 103//7
f 103//8 104//8 105//8
f 105//9 106//9 107//9
f 107//10 108//10 109//10
f 109//11 110//11 111//11
f 111//12 112//12 113//12
f 113//13 114//13 115//13
f 115//14 116//14 117//14
f 117//15 118//15 119//15
f 119//16 120//16 121//16
f 121//17 122//17 123//17
f 123//18 124//18 125//18
f 125//19 126//19 127//19
f 127//20 128//20 129//20
f 129//21 130//21 131//21
f 131//22 132//22 133//22
f 133//23 134//23 135//23
f 135//24 136//24 137//24
f 137//25 138//25 139//25
f 139//26 140//26 141//26
f 141//27 142//27 143//27
f 143//28 144//28 145//28
f 145//29 146//29 147//29
f 147//30 148//30 149//30
f 90//31 96//31 92//31
f 150//31 148//31 152//31
f 96//31 102//31 100//31
f 142//31 140//31 144//31
f 120//31 114//31 112//31
f 134//31 140//31 136//31
f 130//31 126//31 132//31
f 130//31 128//31 126//31
f 122//31 120//31 124//31
f 149//33 150//33 151//33
f 114//31 120//31 116//31
f 140//31 148//31 144//31
f 106//31 96//31 108//31
f 106//31 104//31 102//31
f 98//31 96//31 100//31
f 108//31 96//31 120//31
f 120//31 126//31 124//31
f 148//31 134//31 132//31
f 148//31 140//31 134//31
f 96//31 94//31 92//31
f 140//31 138//31 136//31
f 112//31 110//31 108//31
f 102//31 96//31 106//31
f 148//31 146//31 144//31
f 120//31 112//31 108//31
f 132//31 126//31 90//31
f 120//31 118//31 116//31
f 148//31 132//31 90//31
f 89//32 151//32 90//32
f 126//31 120//31 96//31
f 148//31 90//31 152//31
f 151//34 89//34 91//34
f 91//34 93//34 95//34
f 151//34 91//34 99//34
f 115//34 107//34 109//34
f 125//34 127//34 115//34
f 111//34 115//34 109//34
f 111//34 113//34 115//34
f 115//34 117//34 119//34
f 119//34 121//34 123//34
f 127//34 129//34 131//34
f 131//34 133//34 135//34
f 135//34 137//34 139//34
f 139//34 141//34 143//34
f 119//34 123//34 125//34
f 151//34 145//34 149//34
f 95//34 97//34 91//34
f 139//34 127//34 131//34
f 105//34 107//34 115//34
f 119//34 125//34 115//34
f 139//34 151//34 127//34
f 135//34 139//34 131//34
f 143//34 151//34 139//34
f 145//34 147//34 149//34
f 151//34 143//34 145//34
f 101//34 105//34 115//34
f 101//34 103//34 105//34
f 151//34 99//34 115//34
f 99//34 101//34 115//34
f 91//34 97//34 99//34
