# Blender v2.71 (sub 0) OBJ File: 'particlethrower.blend'
# www.blender.org
v 0.000000 0.349210 0.075089
v 0.000000 0.349210 0.330354
v 0.008708 0.348181 0.075089
v 0.008708 0.348180 0.330354
v 0.017081 0.345133 0.075089
v 0.017081 0.345132 0.330354
v 0.024798 0.340183 0.075089
v 0.024798 0.340183 0.330354
v 0.031562 0.333522 0.075089
v 0.031562 0.333521 0.330354
v 0.037113 0.325405 0.075089
v 0.037113 0.325405 0.330354
v 0.041237 0.316144 0.075089
v 0.041237 0.316144 0.330354
v 0.043777 0.306096 0.075089
v 0.043777 0.306096 0.330354
v 0.044635 0.295647 0.075089
v 0.044635 0.295647 0.330354
v 0.043777 0.285197 0.075089
v 0.043777 0.285197 0.330354
v 0.041237 0.275149 0.075089
v 0.041237 0.275149 0.330354
v 0.037113 0.265889 0.075089
v 0.037113 0.265888 0.330354
v 0.031562 0.257772 0.075089
v 0.031562 0.257772 0.330354
v 0.024798 0.251111 0.075089
v 0.024798 0.251110 0.330354
v 0.017081 0.246161 0.075089
v 0.017081 0.246161 0.330354
v 0.008708 0.243113 0.075089
v 0.008708 0.243113 0.330354
v -0.000000 0.242084 0.075089
v -0.000000 0.242083 0.330354
v -0.008708 0.243113 0.075089
v -0.008708 0.243113 0.330354
v -0.017081 0.246161 0.075089
v -0.017081 0.246161 0.330354
v -0.024798 0.251111 0.075089
v -0.024798 0.251110 0.330354
v -0.031562 0.257772 0.075089
v -0.031562 0.257772 0.330354
v -0.037113 0.265889 0.075089
v -0.037113 0.265888 0.330354
v -0.041237 0.275149 0.075089
v -0.041237 0.275149 0.330354
v -0.043777 0.285197 0.075089
v -0.043777 0.285197 0.330354
v -0.044635 0.295647 0.075089
v -0.044635 0.295647 0.330354
v -0.043777 0.306096 0.075089
v -0.043777 0.306096 0.330354
v -0.041237 0.316144 0.075089
v -0.041237 0.316144 0.330354
v -0.037113 0.325405 0.075089
v -0.037113 0.325405 0.330354
v -0.031562 0.333522 0.075089
v -0.031562 0.333521 0.330354
v -0.024798 0.340183 0.075089
v -0.024798 0.340183 0.330354
v -0.017081 0.345133 0.075089
v -0.017081 0.345132 0.330354
v -0.008708 0.348181 0.075089
v -0.008708 0.348181 0.330354
v -0.111988 -0.438445 -0.302365
v -0.111988 -0.438445 -0.360660
v 0.111988 -0.438445 -0.360660
v 0.111988 -0.438445 -0.302365
v -0.111988 0.433003 -0.302365
v -0.111988 0.433003 -0.360660
v 0.111988 0.433003 -0.360660
v 0.111988 0.433003 -0.302365
v 0.500000 -0.566997 -0.500000
v 0.500000 -0.566997 0.500000
v -0.500000 -0.566997 0.500000
v -0.500000 -0.566997 -0.500000
v 0.500000 -0.433003 -0.499999
v 0.499999 -0.433003 0.500000
v -0.500000 -0.433003 0.500000
v -0.500000 -0.433003 -0.500000
v -0.111988 -0.438445 0.360660
v -0.111988 -0.438445 0.302365
v 0.111988 -0.438445 0.302365
v 0.111988 -0.438445 0.360660
v -0.111988 0.433003 0.360660
v -0.111988 0.433003 0.302365
v 0.111988 0.433003 0.302365
v 0.111988 0.433003 0.360660
v 0.000000 0.349210 -0.332392
v 0.000000 0.349210 0.003686
v 0.008708 0.348181 -0.332392
v 0.008708 0.348180 0.003686
v 0.017081 0.345133 -0.332392
v 0.017081 0.345132 0.003686
v 0.024798 0.340183 -0.332392
v 0.024798 0.340183 0.003686
v 0.031562 0.333522 -0.332392
v 0.031562 0.333521 0.003686
v 0.037113 0.325405 -0.332392
v 0.037113 0.325405 0.003686
v 0.041237 0.316144 -0.332392
v 0.041237 0.316144 0.003686
v 0.043777 0.306096 -0.332392
v 0.043777 0.306096 0.003686
v 0.044635 0.295647 -0.332392
v 0.044635 0.295646 0.003686
v 0.043777 0.285197 -0.332392
v 0.043777 0.285197 0.003686
v 0.041237 0.275149 -0.332392
v 0.041237 0.275149 0.003686
v 0.037113 0.265889 -0.332392
v 0.037113 0.265888 0.003686
v 0.031562 0.257772 -0.332392
v 0.031562 0.257772 0.003686
v 0.024798 0.251111 -0.332392
v 0.024798 0.251110 0.003686
v 0.017081 0.246161 -0.332392
v 0.017081 0.246161 0.003686
v 0.008708 0.243113 -0.332392
v 0.008708 0.243113 0.003686
v -0.000000 0.242084 -0.332392
v -0.000000 0.242083 0.003686
v -0.008708 0.243113 -0.332392
v -0.008708 0.243113 0.003686
v -0.017081 0.246161 -0.332392
v -0.017081 0.246161 0.003686
v -0.024798 0.251111 -0.332392
v -0.024798 0.251110 0.003686
v -0.031562 0.257772 -0.332392
v -0.031562 0.257772 0.003686
v -0.037113 0.265889 -0.332392
v -0.037113 0.265888 0.003686
v -0.041237 0.275149 -0.332392
v -0.041237 0.275149 0.003686
v -0.043777 0.285197 -0.332392
v -0.043777 0.285197 0.003686
v -0.044635 0.295647 -0.332392
v -0.044635 0.295647 0.003686
v -0.043777 0.306096 -0.332392
v -0.043777 0.306096 0.003686
v -0.041237 0.316145 -0.332392
v -0.041237 0.316144 0.003686
v -0.037113 0.325405 -0.332392
v -0.037113 0.325405 0.003686
v -0.031562 0.333522 -0.332392
v -0.031562 0.333521 0.003686
v -0.024798 0.340183 -0.332392
v -0.024798 0.340183 0.003686
v -0.017081 0.345133 -0.332392
v -0.017081 0.345132 0.003686
v -0.008708 0.348181 -0.332392
v -0.008708 0.348180 0.003686
vn 0.117400 0.993100 0.000000
vn 0.342100 0.939700 0.000000
vn 0.539900 0.841700 0.000000
vn 0.701700 0.712500 0.000000
vn 0.825400 0.564500 0.000000
vn 0.913500 0.406900 0.000000
vn 0.969500 0.245100 0.000000
vn 0.996600 0.081800 0.000000
vn 0.996600 -0.081800 -0.000000
vn 0.969500 -0.245100 -0.000000
vn 0.913500 -0.406900 -0.000000
vn 0.825400 -0.564500 -0.000000
vn 0.701700 -0.712500 -0.000000
vn 0.539900 -0.841700 -0.000000
vn 0.342100 -0.939700 -0.000000
vn 0.117400 -0.993100 -0.000000
vn -0.117400 -0.993100 -0.000000
vn -0.342100 -0.939700 -0.000000
vn -0.539900 -0.841700 -0.000000
vn -0.701700 -0.712500 -0.000000
vn -0.825400 -0.564500 -0.000000
vn -0.913500 -0.406900 -0.000000
vn -0.969500 -0.245100 -0.000000
vn -0.996600 -0.081800 -0.000000
vn -0.996600 0.081800 0.000000
vn -0.969500 0.245100 0.000000
vn -0.913500 0.406900 0.000000
vn -0.825400 0.564500 0.000000
vn -0.701700 0.712500 0.000000
vn -0.539900 0.841700 0.000000
vn 0.000000 -0.000000 1.000000
vn -0.117400 0.993100 0.000000
vn -0.342100 0.939700 0.000000
vn -0.000000 0.000000 -1.000000
vn -1.000000 0.000000 0.000000
vn 1.000000 0.000000 0.000000
vn 0.000000 -1.000000 0.000000
vn 0.000000 1.000000 0.000000
s off
f 2//1 4//1 3//1
f 4//2 6//2 5//2
f 6//3 8//3 7//3
f 8//4 10//4 9//4
f 10//5 12//5 11//5
f 12//6 14//6 13//6
f 14//7 16//7 15//7
f 16//8 18//8 17//8
f 18//9 20//9 19//9
f 20//10 22//10 21//10
f 21//11 22//11 24//11
f 24//12 26//12 25//12
f 26//13 28//13 27//13
f 28//14 30//14 29//14
f 30//15 32//15 31//15
f 31//16 32//16 34//16
f 34//17 36//17 35//17
f 35//18 36//18 38//18
f 37//19 38//19 40//19
f 39//20 40//20 42//20
f 41//21 42//21 44//21
f 44//22 46//22 45//22
f 45//23 46//23 48//23
f 48//24 50//24 49//24
f 50//25 52//25 51//25
f 52//26 54//26 53//26
f 54//27 56//27 55//27
f 56//28 58//28 57//28
f 58//29 60//29 59//29
f 60//30 62//30 61//30
f 60//31 58//31 10//31
f 63//32 64//32 2//32
f 62//33 64//33 63//33
f 5//34 7//34 59//34
f 70//35 66//35 65//35
f 71//34 67//34 66//34
f 72//36 68//36 67//36
f 69//31 65//31 68//31
f 65//37 66//37 67//37
f 72//38 71//38 70//38
f 74//37 75//37 76//37
f 80//38 79//38 78//38
f 73//36 77//36 78//36
f 74//31 78//31 79//31
f 79//35 80//35 76//35
f 73//34 76//34 80//34
f 86//35 82//35 81//35
f 87//34 83//34 82//34
f 88//36 84//36 83//36
f 85//31 81//31 84//31
f 81//37 82//37 83//37
f 88//38 87//38 86//38
f 90//1 92//1 91//1
f 92//2 94//2 93//2
f 94//3 96//3 95//3
f 96//4 98//4 97//4
f 98//5 100//5 99//5
f 100//6 102//6 101//6
f 102//7 104//7 103//7
f 104//8 106//8 105//8
f 106//9 108//9 107//9
f 108//10 110//10 109//10
f 110//11 112//11 111//11
f 111//12 112//12 114//12
f 114//13 116//13 115//13
f 116//14 118//14 117//14
f 117//15 118//15 120//15
f 120//16 122//16 121//16
f 122//17 124//17 123//17
f 124//18 126//18 125//18
f 126//19 128//19 127//19
f 128//20 130//20 129//20
f 129//21 130//21 132//21
f 132//22 134//22 133//22
f 134//23 136//23 135//23
f 136//24 138//24 137//24
f 138//25 140//25 139//25
f 140//26 142//26 141//26
f 142//27 144//27 143//27
f 144//28 146//28 145//28
f 146//29 148//29 147//29
f 148//30 150//30 149//30
f 146//31 98//31 96//31
f 152//32 90//32 89//32
f 150//33 152//33 151//33
f 95//34 147//34 149//34
f 1//1 2//1 3//1
f 3//2 4//2 5//2
f 5//3 6//3 7//3
f 7//4 8//4 9//4
f 9//5 10//5 11//5
f 11//6 12//6 13//6
f 13//7 14//7 15//7
f 15//8 16//8 17//8
f 17//9 18//9 19//9
f 19//10 20//10 21//10
f 23//11 21//11 24//11
f 23//12 24//12 25//12
f 25//13 26//13 27//13
f 27//14 28//14 29//14
f 29//15 30//15 31//15
f 33//16 31//16 34//16
f 33//17 34//17 35//17
f 37//18 35//18 38//18
f 39//19 37//19 40//19
f 41//20 39//20 42//20
f 43//21 41//21 44//21
f 43//22 44//22 45//22
f 47//23 45//23 48//23
f 47//24 48//24 49//24
f 49//25 50//25 51//25
f 51//26 52//26 53//26
f 53//27 54//27 55//27
f 55//28 56//28 57//28
f 57//29 58//29 59//29
f 59//30 60//30 61//30
f 28//31 26//31 42//31
f 62//31 4//31 64//31
f 12//31 10//31 58//31
f 24//31 22//31 44//31
f 50//31 18//31 52//31
f 46//31 22//31 48//31
f 42//31 24//31 44//31
f 38//31 28//31 40//31
f 62//31 6//31 4//31
f 30//31 36//31 32//31
f 30//31 38//31 36//31
f 61//33 62//33 63//33
f 18//31 50//31 20//31
f 54//31 52//31 14//31
f 52//31 16//31 14//31
f 6//31 60//31 8//31
f 4//31 2//31 64//31
f 8//31 60//31 10//31
f 48//31 22//31 20//31
f 6//31 62//31 60//31
f 36//31 34//31 32//31
f 18//31 16//31 52//31
f 54//31 14//31 12//31
f 40//31 28//31 42//31
f 1//32 63//32 2//32
f 22//31 46//31 44//31
f 42//31 26//31 24//31
f 50//31 48//31 20//31
f 56//31 12//31 58//31
f 38//31 30//31 28//31
f 56//31 54//31 12//31
f 63//34 1//34 3//34
f 37//34 39//34 29//34
f 11//34 55//34 9//34
f 45//34 47//34 21//34
f 19//34 47//34 17//34
f 23//34 45//34 21//34
f 39//34 41//34 27//34
f 31//34 37//34 29//34
f 31//34 33//34 35//34
f 41//34 25//34 27//34
f 43//34 23//34 41//34
f 69//35 70//35 65//35
f 51//34 15//34 49//34
f 70//34 71//34 66//34
f 59//34 7//34 57//34
f 63//34 5//34 61//34
f 31//34 35//34 37//34
f 23//34 25//34 41//34
f 23//34 43//34 45//34
f 63//34 3//34 5//34
f 53//34 55//34 11//34
f 13//34 53//34 11//34
f 47//34 19//34 21//34
f 39//34 27//34 29//34
f 47//34 49//34 17//34
f 55//34 57//34 9//34
f 57//34 7//34 9//34
f 61//34 5//34 59//34
f 13//34 15//34 53//34
f 49//34 15//34 17//34
f 15//34 51//34 53//34
f 71//36 72//36 67//36
f 72//31 69//31 68//31
f 68//37 65//37 67//37
f 69//38 72//38 70//38
f 73//37 74//37 76//37
f 77//38 80//38 78//38
f 74//36 73//36 78//36
f 75//31 74//31 79//31
f 75//35 79//35 76//35
f 77//34 73//34 80//34
f 85//35 86//35 81//35
f 86//34 87//34 82//34
f 87//36 88//36 83//36
f 88//31 85//31 84//31
f 84//37 81//37 83//37
f 85//38 88//38 86//38
f 89//1 90//1 91//1
f 91//2 92//2 93//2
f 93//3 94//3 95//3
f 95//4 96//4 97//4
f 97//5 98//5 99//5
f 99//6 100//6 101//6
f 101//7 102//7 103//7
f 103//8 104//8 105//8
f 105//9 106//9 107//9
f 107//10 108//10 109//10
f 109//11 110//11 111//11
f 113//12 111//12 114//12
f 113//13 114//13 115//13
f 115//14 116//14 117//14
f 119//15 117//15 120//15
f 119//16 120//16 121//16
f 121//17 122//17 123//17
f 123//18 124//18 125//18
f 125//19 126//19 127//19
f 127//20 128//20 129//20
f 131//21 129//21 132//21
f 131//22 132//22 133//22
f 133//23 134//23 135//23
f 135//24 136//24 137//24
f 137//25 138//25 139//25
f 139//26 140//26 141//26
f 141//27 142//27 143//27
f 143//28 144//28 145//28
f 145//29 146//29 147//29
f 147//30 148//30 149//30
f 90//31 152//31 92//31
f 150//31 94//31 152//31
f 116//31 114//31 128//31
f 112//31 110//31 132//31
f 138//31 106//31 140//31
f 110//31 108//31 134//31
f 108//31 136//31 134//31
f 126//31 116//31 128//31
f 122//31 120//31 124//31
f 118//31 126//31 120//31
f 96//31 94//31 150//31
f 148//31 146//31 96//31
f 106//31 138//31 108//31
f 142//31 140//31 102//31
f 98//31 144//31 100//31
f 132//31 130//31 114//31
f 152//31 94//31 92//31
f 151//32 152//32 89//32
f 142//31 102//31 100//31
f 126//31 118//31 116//31
f 120//31 126//31 124//31
f 138//31 136//31 108//31
f 149//33 150//33 151//33
f 114//31 130//31 128//31
f 112//31 132//31 114//31
f 106//31 104//31 140//31
f 140//31 104//31 102//31
f 98//31 146//31 144//31
f 144//31 142//31 100//31
f 148//31 96//31 150//31
f 110//31 134//31 132//31
f 151//34 89//34 91//34
f 125//34 127//34 115//34
f 99//34 143//34 97//34
f 101//34 103//34 139//34
f 107//34 135//34 105//34
f 111//34 133//34 109//34
f 115//34 127//34 113//34
f 119//34 125//34 117//34
f 119//34 121//34 123//34
f 93//34 95//34 149//34
f 111//34 113//34 131//34
f 145//34 95//34 97//34
f 103//34 105//34 139//34
f 143//34 101//34 141//34
f 147//34 95//34 145//34
f 151//34 93//34 149//34
f 113//34 129//34 131//34
f 111//34 131//34 133//34
f 143//34 99//34 101//34
f 119//34 123//34 125//34
f 151//34 91//34 93//34
f 143//34 145//34 97//34
f 109//34 133//34 107//34
f 117//34 125//34 115//34
f 105//34 135//34 137//34
f 113//34 127//34 129//34
f 133//34 135//34 107//34
f 105//34 137//34 139//34
f 141//34 101//34 139//34
