# Blender v2.71 (sub 0) OBJ File: 'particlethrower.blend'
# www.blender.org
v -0.500000 0.000000 -0.120588
v 0.500000 -0.000000 -0.500000
v -0.500000 -0.023525 -0.118271
v 0.500000 -0.097545 -0.490393
v -0.500000 -0.046147 -0.111409
v 0.500000 -0.191342 -0.461940
v -0.500000 -0.066995 -0.100265
v 0.500000 -0.277785 -0.415735
v -0.500000 -0.085268 -0.085269
v 0.500000 -0.353554 -0.353553
v -0.500000 -0.100265 -0.066995
v 0.500000 -0.415735 -0.277785
v -0.500000 -0.111408 -0.046147
v 0.500000 -0.461940 -0.191342
v -0.500000 -0.118270 -0.023526
v 0.500000 -0.490393 -0.097545
v -0.500000 -0.120588 -0.000000
v 0.500000 -0.500000 -0.000000
v -0.500000 -0.118270 0.023525
v 0.500000 -0.490393 0.097545
v -0.500000 -0.111408 0.046147
v 0.500000 -0.461940 0.191342
v -0.500000 -0.100265 0.066995
v 0.500000 -0.415735 0.277785
v -0.500000 -0.085268 0.085268
v 0.500000 -0.353554 0.353553
v -0.500000 -0.066995 0.100265
v 0.500000 -0.277785 0.415735
v -0.500000 -0.046147 0.111409
v 0.500000 -0.191342 0.461940
v -0.500000 -0.023525 0.118271
v 0.500000 -0.097545 0.490393
v -0.500000 0.000000 0.120588
v 0.500000 -0.000000 0.500000
v -0.500000 0.023526 0.118271
v 0.500000 0.097545 0.490393
v -0.500000 0.046147 0.111409
v 0.500000 0.191342 0.461940
v -0.500000 0.066995 0.100265
v 0.500000 0.277785 0.415735
v -0.500000 0.085269 0.085268
v 0.500000 0.353553 0.353553
v -0.500000 0.100265 0.066995
v 0.500000 0.415735 0.277785
v -0.500000 0.111409 0.046147
v 0.500000 0.461940 0.191341
v -0.500000 0.118271 0.023525
v 0.500000 0.490392 0.097545
v -0.500000 0.120588 -0.000000
v 0.500000 0.500000 -0.000000
v -0.500000 0.118271 -0.023526
v 0.500000 0.490392 -0.097546
v -0.500000 0.111409 -0.046147
v 0.500000 0.461939 -0.191342
v -0.500000 0.100265 -0.066995
v 0.500000 0.415734 -0.277786
v -0.500000 0.085269 -0.085269
v 0.500000 0.353553 -0.353554
v -0.500000 0.066995 -0.100265
v 0.500000 0.277784 -0.415735
v -0.500000 0.046147 -0.111409
v 0.500000 0.191341 -0.461940
v -0.500000 0.023526 -0.118271
v 0.500000 0.097544 -0.490393
vn -0.353200 -0.091700 -0.931000
vn -0.353200 -0.271600 -0.895200
vn -0.353200 -0.441000 -0.825100
vn -0.353200 -0.593500 -0.723200
vn -0.353200 -0.723200 -0.593500
vn -0.353200 -0.825100 -0.441000
vn -0.353200 -0.895200 -0.271600
vn -0.353200 -0.931000 -0.091700
vn -0.353200 -0.931000 0.091700
vn -0.353200 -0.895200 0.271600
vn -0.353200 -0.825100 0.441000
vn -0.353200 -0.723200 0.593500
vn -0.353200 -0.593500 0.723200
vn -0.353200 -0.441000 0.825100
vn -0.353200 -0.271600 0.895200
vn -0.353200 -0.091700 0.931000
vn -0.353200 0.091700 0.931000
vn -0.353200 0.271600 0.895200
vn -0.353200 0.441000 0.825100
vn -0.353200 0.593500 0.723200
vn -0.353200 0.723200 0.593500
vn -0.353200 0.825100 0.441000
vn -0.353200 0.895200 0.271600
vn -0.353200 0.931000 0.091700
vn -0.353200 0.931000 -0.091700
vn -0.353200 0.895200 -0.271600
vn -0.353200 0.825100 -0.441000
vn -0.353200 0.723200 -0.593500
vn -0.353200 0.593500 -0.723200
vn -0.353200 0.441000 -0.825100
vn 1.000000 -0.000000 0.000000
vn -0.353200 0.091700 -0.931000
vn -0.353200 0.271600 -0.895200
vn -1.000000 0.000000 -0.000000
s off
f 1//1 2//1 4//1
f 3//2 4//2 6//2
f 5//3 6//3 8//3
f 7//4 8//4 10//4
f 9//5 10//5 12//5
f 12//6 14//6 13//6
f 14//7 16//7 15//7
f 15//8 16//8 18//8
f 18//9 20//9 19//9
f 20//10 22//10 21//10
f 21//11 22//11 24//11
f 24//12 26//12 25//12
f 25//13 26//13 28//13
f 28//14 30//14 29//14
f 30//15 32//15 31//15
f 31//16 32//16 34//16
f 34//17 36//17 35//17
f 36//18 38//18 37//18
f 37//19 38//19 40//19
f 39//20 40//20 42//20
f 42//21 44//21 43//21
f 44//22 46//22 45//22
f 45//23 46//23 48//23
f 48//24 50//24 49//24
f 50//25 52//25 51//25
f 51//26 52//26 54//26
f 54//27 56//27 55//27
f 56//28 58//28 57//28
f 58//29 60//29 59//29
f 60//30 62//30 61//30
f 38//31 22//31 6//31
f 64//32 2//32 1//32
f 61//33 62//33 64//33
f 33//34 63//34 23//34
f 3//1 1//1 4//1
f 5//2 3//2 6//2
f 7//3 5//3 8//3
f 9//4 7//4 10//4
f 11//5 9//5 12//5
f 11//6 12//6 13//6
f 13//7 14//7 15//7
f 17//8 15//8 18//8
f 17//9 18//9 19//9
f 19//10 20//10 21//10
f 23//11 21//11 24//11
f 23//12 24//12 25//12
f 27//13 25//13 28//13
f 27//14 28//14 29//14
f 29//15 30//15 31//15
f 33//16 31//16 34//16
f 33//17 34//17 35//17
f 35//18 36//18 37//18
f 39//19 37//19 40//19
f 41//20 39//20 42//20
f 41//21 42//21 43//21
f 43//22 44//22 45//22
f 47//23 45//23 48//23
f 47//24 48//24 49//24
f 49//25 50//25 51//25
f 53//26 51//26 54//26
f 53//27 54//27 55//27
f 55//28 56//28 57//28
f 57//29 58//29 59//29
f 59//30 60//30 61//30
f 2//31 64//31 4//31
f 64//31 62//31 60//31
f 58//31 64//31 60//31
f 54//31 6//31 56//31
f 54//31 52//31 50//31
f 46//31 44//31 48//31
f 63//33 61//33 64//33
f 38//31 44//31 40//31
f 34//31 32//31 36//31
f 32//31 38//31 36//31
f 30//31 28//31 26//31
f 26//31 24//31 22//31
f 22//31 20//31 18//31
f 18//31 16//31 14//31
f 14//31 12//31 10//31
f 10//31 8//31 6//31
f 64//31 58//31 4//31
f 50//31 48//31 54//31
f 58//31 6//31 4//31
f 54//31 48//31 38//31
f 32//31 30//31 22//31
f 30//31 26//31 22//31
f 22//31 18//31 14//31
f 14//31 10//31 6//31
f 6//31 58//31 56//31
f 48//31 44//31 38//31
f 38//31 32//31 22//31
f 22//31 14//31 6//31
f 6//31 54//31 38//31
f 63//32 64//32 1//32
f 44//31 42//31 40//31
f 63//34 1//34 3//34
f 33//34 39//34 47//34
f 11//34 5//34 9//34
f 63//34 49//34 57//34
f 15//34 17//34 19//34
f 19//34 21//34 23//34
f 27//34 29//34 25//34
f 23//34 25//34 31//34
f 49//34 53//34 57//34
f 39//34 33//34 37//34
f 43//34 47//34 41//34
f 43//34 45//34 47//34
f 53//34 55//34 57//34
f 47//34 39//34 41//34
f 25//34 29//34 31//34
f 63//34 57//34 61//34
f 31//34 33//34 23//34
f 23//34 13//34 19//34
f 5//34 11//34 13//34
f 49//34 51//34 53//34
f 5//34 7//34 9//34
f 57//34 59//34 61//34
f 33//34 47//34 63//34
f 63//34 5//34 13//34
f 63//34 3//34 5//34
f 47//34 49//34 63//34
f 13//34 23//34 63//34
f 33//34 35//34 37//34
f 13//34 15//34 19//34
